<?xml version="1.0" encoding="UTF-8"?>
<svg xmlns="http://www.w3.org/2000/svg" width="444" height="600">
  <g fill="#002b7c" transform="translate(-5455.7 -3068.2) scale(6.002)">
    <path d="M939.58 515.25c-.0391.0273-.082.0547-.12109.0859.0117-.004.0234-.0117.0352-.0156.0312-.0234.0547-.0469.0859-.0703M977.27 547.83c0 7.4453-2.625 14.289-6.9961 19.66 1.1562.41406 2.4141.92968 3.6172 1.4922 4.4688-5.8711 7.1289-13.203 7.1289-21.152 0-14.273-8.5547-26.539-20.809-31.969 1.0898 1.5898 1.8789 3.4219 2.3125 5.4727 8.8438 5.5156 14.746 15.328 14.746 26.496M945.23 513.22c.32422-.0117.64453-.0234.98828-.008-.19922-.008-.39844-.0156-.59375-.0156-.13672 0-.26172.0195-.39453.0234M914.86 547.83c0-9.1055 3.9219-17.309 10.16-23.02 1.3984-4.5898 5.0039-7.1328 7.8828-8.2227.28906-.5039.63281-1.0273 1.0195-1.5508-13.32 4.9375-22.816 17.754-22.816 32.793 0 9.6445 3.9062 18.375 10.223 24.699.61719-.80469 1.4062-1.7773 2.4023-2.9375-5.4844-5.625-8.8711-13.305-8.8711-21.762M946.06 579.04c-1.4883 0-2.9531-.11328-4.3906-.3164-3.3516.42187-6.1758 1.0352-8.3906 1.6484 3.9609 1.5547 8.2695 2.4219 12.781 2.4219 5.7031 0 11.078-1.375 15.836-3.7969-3.5625-.5-6.7891-.6875-8.8438-.75781-2.25.51953-4.5859.80078-6.9922.80078"/>
    <path d="M928.66 529.59s1.0859-3.75 10.355-6.4102c0 0-2.4648-.59375-3.5508-2.9609 0 0-7.1992 1.4805-6.8047 9.3711"/>
    <path d="M961.36 545.27c3.5664-14.605-2.8086-22.195-2.8086-22.195-.78906-5.4219-4.832-9.4688-12.328-9.8633-7.4961-.39453-10.258 6.707-10.258 6.707s8.1836-4.1406 12.328-1.3789c4.1406 2.7617 2.4648 10.355 2.4648 10.355 7.9258 8.5508-6.2305 25.242-15.539 34.668-4.0898-16.988 5.5781-34.766 5.5781-34.766-1.3828 2.168-2.2695 2.5625-9.1719 11.836-6.9062 9.2695-2.6641 17.359-2.6641 17.359-.69141-4.4414 1.5781-7.3984 2.0703-7.3984s.78906 2.1719.78906 2.1719c-.2539 6.9648 1.6094 11.07 2.1328 12.074-9.418 9.4844-10.91 12.68-10.91 12.68.19531.59375 1.1836-.0977 2.5625-1.082 1.3828-.98829 8.7812-6.2656 20.812-13.613 7.1328-4.3555 13.414-11.293 14.941-17.555M968.12 571.21c-3.3555-1.082-6.0117-2.2617-11.492-2.4648-3.9922-.14843-3.5508-3.1055-3.1055-4.4375 1.293-3.8789 2.8594-5.7226 2.8594-5.7226s-17.703 12.379-30.625 19.973c0 0 9.418-4.7305 25.004-4.5859 0 0 8.582-.0977 16.965 1.7773 0 0 7.8906 1.5781 8.7773.49219.89062-1.0859-5.0273-3.9453-8.3828-5.0312"/>
    <path d="M942.19 522.89c1.0312 0 1.8672-.83985 1.8672-1.8672 0-1.0312-.83594-1.8672-1.8672-1.8672s-1.8672.83594-1.8672 1.8672c0 1.0273.83594 1.8672 1.8672 1.8672m-12.94 74.98h-1.6406v11.043h1.6406zm5.9414 4.0352v-2.3906c0-1.4414-1.1289-1.8594-2.1562-1.8594-1.0078 0-2.1367.41797-2.1367 1.8594v7.7578c0 1.4414 1.1289 1.8594 2.1367 1.8594 1.0273 0 2.1562-.41797 2.1562-1.8594v-2.5312h-1.6406v2.3906c0 .55859-.17187.68359-.5.68359-.33984 0-.51171-.125-.51171-.68359v-7.4766c0-.55859.17187-.68359.51171-.68359.32813 0 .5.125.5.68359v2.25zm5.3359 7.0078v-1.4375h-2.0469v-3.8828h1.9375v-1.4414h-1.9375v-2.8398h2.0156v-1.4414h-3.6562v11.043zm2.9492-4.1875h-1.6445v2.5469c0 1.4414 1.1328 1.8594 2.1406 1.8594 1.0234 0 2.1523-.41797 2.1523-1.8594v-1.957c0-1.1172-2.6484-3.5039-2.6484-4.2969v-1.3633c0-.55859.16796-.68359.51171-.68359.32422 0 .4961.125.4961.68359v2.1875h1.6406v-2.3281c0-1.4414-1.1289-1.8594-2.1523-1.8594-1.0078 0-2.1406.41797-2.1406 1.8594v1.582c0 1.8008 2.6524 3.3203 2.6524 4.8711v1.1641c0 .55859-.17188.68359-.4961.68359-.34375 0-.51171-.125-.51171-.68359zm5.9102-.2461.40235-4.5938h.10937l.33984 4.5938zm-2 4.4336h1.4883l.35547-2.9922h1.1641l.3086 2.9922h1.6602l-1.2578-11.043h-2.4648zm5.1328-11.043v1.4414h1.4453v9.6016h1.6406v-9.6016h1.4258V597.87zm4.3164 6.9492h1.9688v-1.1172h-1.9688zm5.2266 2.7773c.0742-2.4336 2.4961-4.2344 2.4961-7.3086 0-1.3008-.32813-2.5391-1.9062-2.5391-1.6602 0-2.3906.63282-2.3906 2.3398v1.7383h1.6445v-1.9414c0-.49609.15625-.82031.5586-.82031.32422 0 .44922.23047.44922.82031v1.0234c0 1.9102-2.6524 4.082-2.6524 7.3086v.69532h4.2344v-1.3164z"/>
  </g>
</svg>