<svg width="192" height="16" viewBox="0 0 192 16" fill="none" xmlns="http://www.w3.org/2000/svg">
<path d="M155.046 0.50197C155.046 0.50197 154.779 0.50197 154.642 0.505909C150.865 0.600446 147.791 4.10425 147.791 8.31709V15.5H150.538V11.5727H159.221V15.5H161.968V8.31316C161.968 4.0432 158.864 0.537421 155.046 0.5V0.50197ZM159.025 8.71494H150.734V7.69472C150.734 5.349 152.583 3.44052 154.879 3.44052C157.176 3.44052 159.025 5.349 159.025 7.69472V8.71494Z" fill="white"/>
<path d="M0 0.661504V15.3405H11.3633V12.4945H3.05829V9.28808H10.7931V6.60163H3.05829V3.50749H11.3633V0.661504H0Z" fill="white"/>
<path d="M21.2787 0.661504H18.2204V15.3405H28.9959V12.4945H21.2787V0.661504Z" fill="white"/>
<path d="M112.586 0.661504H109.528V15.3405H112.586V0.661504Z" fill="white"/>
<path d="M171.538 0.661504H168.48V15.3405H171.538V0.661504Z" fill="white"/>
<path d="M55.4566 8.00197C55.4566 5.62474 57.3551 3.50945 59.6885 3.50945H65.4622V0.661504H60.1097C55.8622 0.661504 52.3749 3.87382 52.3376 7.82865C52.3376 7.82865 52.3376 8.10439 52.3415 8.24816C52.4356 12.1597 55.921 15.3424 60.1117 15.3424H65.4602L65.5092 12.3645H59.7355C57.4021 12.3645 55.4547 10.3812 55.4547 8.00197H55.4566Z" fill="white"/>
<path d="M121.857 8.00197C121.857 5.62474 123.756 3.50945 126.089 3.50945H131.863V0.661504H126.51C122.263 0.661504 118.776 3.87382 118.738 7.82865C118.738 7.82865 118.738 8.10439 118.742 8.24816C118.836 12.1597 122.322 15.3424 126.512 15.3424H131.861L131.91 12.3645H126.136C123.803 12.3645 121.855 10.3812 121.855 8.00197H121.857Z" fill="white"/>
<path d="M71.5004 3.50749H75.9478V15.3405H79.006V3.50749H83.4514V0.661504H71.5004V3.50749Z" fill="white"/>
<path d="M35.0831 0.661504V15.3405H46.4464V12.4945H38.1414V9.28808H45.8762V6.60163H38.1414V3.50749H46.4464V0.661504H35.0831Z" fill="white"/>
<path d="M98.449 10.1527C100.667 10.1527 102.465 8.34504 102.465 6.11517V5.40797C102.465 2.78839 100.354 0.664458 97.7477 0.66323L89.9265 0.659544V15.3385H92.9613V3.41099H97.4645C98.5957 3.41099 99.5128 4.3329 99.5128 5.47014C99.5128 6.60738 98.5957 7.52929 97.4645 7.52929H93.0612L99.2934 15.3424H103.053L98.449 10.1527Z" fill="white"/>
<path d="M187.396 10.1527C189.614 10.1527 191.412 8.34504 191.412 6.11517V5.40797C191.412 2.78839 189.3 0.664458 186.695 0.66323L178.873 0.659544V15.3385H181.908V3.41099H186.411C187.543 3.41099 188.46 4.3329 188.46 5.47014C188.46 6.60738 187.543 7.52929 186.411 7.52929H182.008L188.24 15.3424H192L187.396 10.1527Z" fill="white"/>
</svg>
